<?xml version="1.0" encoding="UTF-8"?>
<svg xmlns="http://www.w3.org/2000/svg" xmlns:xlink="http://www.w3.org/1999/xlink" width="16px" height="16px" viewBox="0 0 16 16" version="1.1">
<g id="surface1">
<path style=" stroke:none;fill-rule:nonzero;fill:rgb(28.627451%,61.176471%,32.941176%);fill-opacity:1;" d="M 10.523438 3.8125 C 11.289062 3.957031 12.023438 3.457031 12.167969 2.691406 C 12.3125 1.925781 11.808594 1.1875 11.046875 1.042969 C 10.28125 0.898438 9.542969 1.402344 9.398438 2.167969 C 9.253906 2.933594 9.757812 3.667969 10.523438 3.8125 Z M 10.523438 3.8125 "/>
<path style=" stroke:none;fill-rule:nonzero;fill:rgb(28.627451%,61.176471%,32.941176%);fill-opacity:1;" d="M 4.210938 7.492188 C 3.992188 7.40625 3.847656 7.210938 3.816406 6.996094 L 3.550781 5.238281 L 4.292969 6.761719 C 4.367188 6.914062 4.496094 7.03125 4.648438 7.089844 L 7.109375 8.050781 C 7.1875 8.082031 7.269531 8.09375 7.351562 8.09375 C 7.617188 8.09375 7.867188 7.933594 7.96875 7.671875 C 8.105469 7.328125 7.933594 6.945312 7.59375 6.8125 L 5.375 5.945312 L 4.742188 4.65625 L 5.355469 5.300781 L 5.355469 4.804688 C 5.355469 4.066406 4.757812 3.46875 4.019531 3.46875 L 3.445312 3.46875 C 2.707031 3.46875 2.109375 4.066406 2.109375 4.804688 L 2.113281 15.203125 C 2.113281 15.644531 2.472656 16 2.914062 16 C 3.351562 16 3.710938 15.644531 3.710938 15.203125 L 3.710938 10.449219 L 4.242188 10.449219 L 4.242188 15.203125 C 4.242188 15.433594 4.179688 15.644531 4.074219 15.832031 C 4.210938 15.9375 4.375 16 4.558594 16 C 5 16 5.355469 15.644531 5.355469 15.203125 L 5.355469 7.9375 L 4.457031 7.585938 Z M 4.210938 7.492188 "/>
<path style=" stroke:none;fill-rule:nonzero;fill:rgb(28.627451%,61.176471%,32.941176%);fill-opacity:1;" d="M 3.734375 3.109375 C 4.589844 3.109375 5.285156 2.414062 5.285156 1.554688 C 5.285156 0.695312 4.589844 0 3.734375 0 C 2.875 0 2.175781 0.695312 2.175781 1.554688 C 2.175781 2.414062 2.875 3.109375 3.734375 3.109375 Z M 3.734375 3.109375 "/>
<path style=" stroke:none;fill-rule:nonzero;fill:rgb(28.627451%,61.176471%,32.941176%);fill-opacity:1;" d="M 13.210938 9.117188 C 13.207031 8.964844 13.140625 8.8125 13.015625 8.699219 L 11.265625 7.105469 L 10.132812 4.996094 C 10.234375 5.089844 10.632812 5.605469 10.730469 5.722656 L 10.761719 5.546875 C 10.886719 4.890625 10.453125 4.253906 9.792969 4.132812 L 9.285156 4.035156 C 8.625 3.910156 7.992188 4.34375 7.867188 5.003906 L 7.628906 6.253906 L 7.785156 6.316406 C 8.402344 6.554688 8.707031 7.25 8.464844 7.863281 C 8.261719 8.390625 7.722656 8.6875 7.183594 8.613281 L 7.074219 9.203125 C 7.015625 9.519531 7.011719 9.84375 7.0625 10.160156 L 7.394531 12.160156 L 6.304688 15.019531 C 6.160156 15.390625 6.347656 15.808594 6.722656 15.953125 C 7.09375 16.09375 7.511719 15.90625 7.65625 15.535156 L 8.816406 12.492188 C 8.863281 12.375 8.875 12.246094 8.855469 12.121094 L 8.710938 11.230469 L 9.710938 12.417969 L 9.675781 15.269531 C 9.671875 15.667969 9.992188 15.996094 10.390625 16 C 10.394531 16 10.398438 16 10.402344 16 C 10.796875 16 11.121094 15.683594 11.125 15.285156 L 11.164062 12.167969 C 11.164062 11.992188 11.105469 11.824219 10.992188 11.691406 L 9.855469 10.34375 L 10.21875 8.421875 L 10.0625 8.277344 C 9.957031 8.179688 9.882812 8.125 9.839844 7.992188 C 9.78125 7.816406 9.109375 5.753906 9.074219 5.574219 L 10.253906 7.769531 C 10.285156 7.828125 10.328125 7.882812 10.378906 7.929688 L 12.019531 9.421875 C 11.914062 9.546875 11.835938 9.691406 11.796875 9.855469 C 11.746094 10.066406 11.765625 11.003906 11.765625 11.246094 C 11.765625 11.46875 11.949219 11.648438 12.171875 11.644531 C 12.390625 11.640625 12.5625 11.453125 12.5625 11.234375 L 12.5625 10.117188 C 12.5625 9.976562 12.667969 9.851562 12.808594 9.84375 C 12.960938 9.832031 13.089844 9.949219 13.09375 10.101562 C 13.09375 10.101562 13.09375 10.105469 13.09375 10.105469 L 13.09375 15.585938 C 13.09375 15.808594 13.265625 15.996094 13.484375 16 C 13.710938 16.003906 13.890625 15.824219 13.890625 15.601562 L 13.890625 10.105469 C 13.890625 9.660156 13.597656 9.269531 13.210938 9.117188 Z M 13.210938 9.117188 "/>
</g>
</svg>
